<svg width="107" height="19" viewBox="0 0 107 19" fill="none" xmlns="http://www.w3.org/2000/svg">
<path d="M0.516 8.812C0.516 7.996 0.7 7.264 1.068 6.616C1.436 5.96 1.936 5.448 2.568 5.08C3.208 4.712 3.916 4.528 4.692 4.528C5.604 4.528 6.4 4.748 7.08 5.188C7.76 5.628 8.256 6.252 8.568 7.06H7.26C7.028 6.556 6.692 6.168 6.252 5.896C5.82 5.624 5.3 5.488 4.692 5.488C4.108 5.488 3.584 5.624 3.12 5.896C2.656 6.168 2.292 6.556 2.028 7.06C1.764 7.556 1.632 8.14 1.632 8.812C1.632 9.476 1.764 10.06 2.028 10.564C2.292 11.06 2.656 11.444 3.12 11.716C3.584 11.988 4.108 12.124 4.692 12.124C5.3 12.124 5.82 11.992 6.252 11.728C6.692 11.456 7.028 11.068 7.26 10.564H8.568C8.256 11.364 7.76 11.984 7.08 12.424C6.4 12.856 5.604 13.072 4.692 13.072C3.916 13.072 3.208 12.892 2.568 12.532C1.936 12.164 1.436 11.656 1.068 11.008C0.7 10.36 0.516 9.628 0.516 8.812ZM9.78553 9.688C9.78553 9.016 9.92153 8.428 10.1935 7.924C10.4655 7.412 10.8375 7.016 11.3095 6.736C11.7895 6.456 12.3215 6.316 12.9055 6.316C13.4815 6.316 13.9815 6.44 14.4055 6.688C14.8295 6.936 15.1455 7.248 15.3535 7.624V6.424H16.4575V13H15.3535V11.776C15.1375 12.16 14.8135 12.48 14.3815 12.736C13.9575 12.984 13.4615 13.108 12.8935 13.108C12.3095 13.108 11.7815 12.964 11.3095 12.676C10.8375 12.388 10.4655 11.984 10.1935 11.464C9.92153 10.944 9.78553 10.352 9.78553 9.688ZM15.3535 9.7C15.3535 9.204 15.2535 8.772 15.0535 8.404C14.8535 8.036 14.5815 7.756 14.2375 7.564C13.9015 7.364 13.5295 7.264 13.1215 7.264C12.7135 7.264 12.3415 7.36 12.0055 7.552C11.6695 7.744 11.4015 8.024 11.2015 8.392C11.0015 8.76 10.9015 9.192 10.9015 9.688C10.9015 10.192 11.0015 10.632 11.2015 11.008C11.4015 11.376 11.6695 11.66 12.0055 11.86C12.3415 12.052 12.7135 12.148 13.1215 12.148C13.5295 12.148 13.9015 12.052 14.2375 11.86C14.5815 11.66 14.8535 11.376 15.0535 11.008C15.2535 10.632 15.3535 10.196 15.3535 9.7ZM19.3949 4.12V13H18.3029V4.12H19.3949ZM31.9457 7.492C32.1377 7.116 32.4097 6.824 32.7617 6.616C33.1217 6.408 33.5577 6.304 34.0697 6.304V7.432H33.7817C32.5577 7.432 31.9457 8.096 31.9457 9.424V13H30.8537V6.424H31.9457V7.492ZM35.8943 5.356C35.6863 5.356 35.5103 5.284 35.3663 5.14C35.2223 4.996 35.1503 4.82 35.1503 4.612C35.1503 4.404 35.2223 4.228 35.3663 4.084C35.5103 3.94 35.6863 3.868 35.8943 3.868C36.0943 3.868 36.2623 3.94 36.3983 4.084C36.5423 4.228 36.6143 4.404 36.6143 4.612C36.6143 4.82 36.5423 4.996 36.3983 5.14C36.2623 5.284 36.0943 5.356 35.8943 5.356ZM36.4223 6.424V13H35.3303V6.424H36.4223ZM44.2834 9.46C44.2834 9.668 44.2714 9.888 44.2474 10.12H38.9914C39.0314 10.768 39.2514 11.276 39.6514 11.644C40.0594 12.004 40.5514 12.184 41.1274 12.184C41.5994 12.184 41.9914 12.076 42.3034 11.86C42.6234 11.636 42.8474 11.34 42.9754 10.972H44.1514C43.9754 11.604 43.6234 12.12 43.0954 12.52C42.5674 12.912 41.9114 13.108 41.1274 13.108C40.5034 13.108 39.9434 12.968 39.4474 12.688C38.9594 12.408 38.5754 12.012 38.2954 11.5C38.0154 10.98 37.8754 10.38 37.8754 9.7C37.8754 9.02 38.0114 8.424 38.2834 7.912C38.5554 7.4 38.9354 7.008 39.4234 6.736C39.9194 6.456 40.4874 6.316 41.1274 6.316C41.7514 6.316 42.3034 6.452 42.7834 6.724C43.2634 6.996 43.6314 7.372 43.8874 7.852C44.1514 8.324 44.2834 8.86 44.2834 9.46ZM43.1554 9.232C43.1554 8.816 43.0634 8.46 42.8794 8.164C42.6954 7.86 42.4434 7.632 42.1234 7.48C41.8114 7.32 41.4634 7.24 41.0794 7.24C40.5274 7.24 40.0554 7.416 39.6634 7.768C39.2794 8.12 39.0594 8.608 39.0034 9.232H43.1554ZM48.0528 13.108C47.5488 13.108 47.0968 13.024 46.6968 12.856C46.2968 12.68 45.9808 12.44 45.7488 12.136C45.5168 11.824 45.3888 11.468 45.3648 11.068H46.4928C46.5248 11.396 46.6768 11.664 46.9488 11.872C47.2288 12.08 47.5928 12.184 48.0408 12.184C48.4568 12.184 48.7848 12.092 49.0248 11.908C49.2648 11.724 49.3848 11.492 49.3848 11.212C49.3848 10.924 49.2568 10.712 49.0008 10.576C48.7448 10.432 48.3488 10.292 47.8128 10.156C47.3248 10.028 46.9248 9.9 46.6128 9.772C46.3088 9.636 46.0448 9.44 45.8208 9.184C45.6048 8.92 45.4968 8.576 45.4968 8.152C45.4968 7.816 45.5968 7.508 45.7968 7.228C45.9968 6.948 46.2808 6.728 46.6488 6.568C47.0168 6.4 47.4368 6.316 47.9088 6.316C48.6368 6.316 49.2248 6.5 49.6728 6.868C50.1208 7.236 50.3608 7.74 50.3928 8.38H49.3008C49.2768 8.036 49.1368 7.76 48.8808 7.552C48.6328 7.344 48.2968 7.24 47.8728 7.24C47.4808 7.24 47.1688 7.324 46.9368 7.492C46.7048 7.66 46.5888 7.88 46.5888 8.152C46.5888 8.368 46.6568 8.548 46.7928 8.692C46.9368 8.828 47.1128 8.94 47.3208 9.028C47.5368 9.108 47.8328 9.2 48.2088 9.304C48.6808 9.432 49.0648 9.56 49.3608 9.688C49.6568 9.808 49.9088 9.992 50.1168 10.24C50.3328 10.488 50.4448 10.812 50.4528 11.212C50.4528 11.572 50.3528 11.896 50.1528 12.184C49.9528 12.472 49.6688 12.7 49.3008 12.868C48.9408 13.028 48.5248 13.108 48.0528 13.108ZM60.3415 4.636V5.524H58.0615V13H56.9695V5.524H54.6775V4.636H60.3415ZM62.7777 7.492C62.9697 7.116 63.2417 6.824 63.5937 6.616C63.9537 6.408 64.3897 6.304 64.9017 6.304V7.432H64.6137C63.3897 7.432 62.7777 8.096 62.7777 9.424V13H61.6857V6.424H62.7777V7.492ZM65.7543 9.688C65.7543 9.016 65.8903 8.428 66.1623 7.924C66.4343 7.412 66.8063 7.016 67.2783 6.736C67.7583 6.456 68.2903 6.316 68.8743 6.316C69.4503 6.316 69.9503 6.44 70.3743 6.688C70.7983 6.936 71.1143 7.248 71.3223 7.624V6.424H72.4263V13H71.3223V11.776C71.1063 12.16 70.7823 12.48 70.3503 12.736C69.9263 12.984 69.4303 13.108 68.8623 13.108C68.2783 13.108 67.7503 12.964 67.2783 12.676C66.8063 12.388 66.4343 11.984 66.1623 11.464C65.8903 10.944 65.7543 10.352 65.7543 9.688ZM71.3223 9.7C71.3223 9.204 71.2223 8.772 71.0223 8.404C70.8223 8.036 70.5503 7.756 70.2063 7.564C69.8703 7.364 69.4983 7.264 69.0903 7.264C68.6823 7.264 68.3103 7.36 67.9743 7.552C67.6383 7.744 67.3703 8.024 67.1703 8.392C66.9703 8.76 66.8703 9.192 66.8703 9.688C66.8703 10.192 66.9703 10.632 67.1703 11.008C67.3703 11.376 67.6383 11.66 67.9743 11.86C68.3103 12.052 68.6823 12.148 69.0903 12.148C69.4983 12.148 69.8703 12.052 70.2063 11.86C70.5503 11.66 70.8223 11.376 71.0223 11.008C71.2223 10.632 71.3223 10.196 71.3223 9.7ZM73.8637 9.7C73.8637 9.02 73.9997 8.428 74.2717 7.924C74.5437 7.412 74.9197 7.016 75.3997 6.736C75.8877 6.456 76.4437 6.316 77.0677 6.316C77.8757 6.316 78.5397 6.512 79.0597 6.904C79.5877 7.296 79.9357 7.84 80.1037 8.536H78.9277C78.8157 8.136 78.5957 7.82 78.2677 7.588C77.9477 7.356 77.5477 7.24 77.0677 7.24C76.4437 7.24 75.9397 7.456 75.5557 7.888C75.1717 8.312 74.9797 8.916 74.9797 9.7C74.9797 10.492 75.1717 11.104 75.5557 11.536C75.9397 11.968 76.4437 12.184 77.0677 12.184C77.5477 12.184 77.9477 12.072 78.2677 11.848C78.5877 11.624 78.8077 11.304 78.9277 10.888H80.1037C79.9277 11.56 79.5757 12.1 79.0477 12.508C78.5197 12.908 77.8597 13.108 77.0677 13.108C76.4437 13.108 75.8877 12.968 75.3997 12.688C74.9197 12.408 74.5437 12.012 74.2717 11.5C73.9997 10.988 73.8637 10.388 73.8637 9.7ZM85.2327 13L82.6527 10.096V13H81.5607V4.12H82.6527V9.34L85.1847 6.424H86.7087L83.6127 9.7L86.7207 13H85.2327ZM93.7365 9.46C93.7365 9.668 93.7245 9.888 93.7005 10.12H88.4445C88.4845 10.768 88.7045 11.276 89.1045 11.644C89.5125 12.004 90.0045 12.184 90.5805 12.184C91.0525 12.184 91.4445 12.076 91.7565 11.86C92.0765 11.636 92.3005 11.34 92.4285 10.972H93.6045C93.4285 11.604 93.0765 12.12 92.5485 12.52C92.0205 12.912 91.3645 13.108 90.5805 13.108C89.9565 13.108 89.3965 12.968 88.9005 12.688C88.4125 12.408 88.0285 12.012 87.7485 11.5C87.4685 10.98 87.3285 10.38 87.3285 9.7C87.3285 9.02 87.4645 8.424 87.7365 7.912C88.0085 7.4 88.3885 7.008 88.8765 6.736C89.3725 6.456 89.9405 6.316 90.5805 6.316C91.2045 6.316 91.7565 6.452 92.2365 6.724C92.7165 6.996 93.0845 7.372 93.3405 7.852C93.6045 8.324 93.7365 8.86 93.7365 9.46ZM92.6085 9.232C92.6085 8.816 92.5165 8.46 92.3325 8.164C92.1485 7.86 91.8965 7.632 91.5765 7.48C91.2645 7.32 90.9165 7.24 90.5325 7.24C89.9805 7.24 89.5085 7.416 89.1165 7.768C88.7325 8.12 88.5125 8.608 88.4565 9.232H92.6085ZM96.2699 7.492C96.4619 7.116 96.7339 6.824 97.0859 6.616C97.4459 6.408 97.8819 6.304 98.3939 6.304V7.432H98.1059C96.8819 7.432 96.2699 8.096 96.2699 9.424V13H95.1779V6.424H96.2699V7.492Z" fill="black"/>
<path d="M24.7617 4L24.5156 4.21094C24.5156 4.21094 23.6382 4.92725 22.7695 5.96875C21.9009 7.01025 21 8.38428 21 9.82422C21 10.8613 21.4248 11.7256 22.1133 12.3086C22.7593 12.855 23.6235 13.1509 24.5625 13.1875C24.6255 13.1904 24.687 13.1992 24.75 13.1992C24.813 13.1992 24.8745 13.1904 24.9375 13.1875C25.8765 13.1509 26.7407 12.855 27.3867 12.3086C28.0752 11.7256 28.5 10.8613 28.5 9.82422C28.5 8.52783 27.5947 7.17725 26.7305 6.09766C25.8662 5.01807 25.0078 4.22266 25.0078 4.22266L24.7617 4ZM24.7383 5.04297C24.9331 5.22754 25.4443 5.69043 26.1445 6.56641C26.9678 7.59619 27.75 8.90869 27.75 9.82422C27.75 10.6621 27.4248 11.2979 26.8945 11.7461C26.7656 11.8545 26.625 11.9541 26.4727 12.0391C26.5649 11.8179 26.625 11.5776 26.625 11.3242C26.625 8.98047 25.3711 7.55078 25.3711 7.55078L24.6914 6.78906L24.7148 7.80859C24.7148 7.80859 24.7163 8.28613 24.6562 8.74609C24.6255 8.97607 24.583 9.20459 24.5273 9.33203C24.5112 9.36865 24.5039 9.37305 24.4922 9.39062C24.4526 9.37598 24.334 9.31738 24.2227 9.20312C24.0967 9.07422 24.0117 8.94531 24.0117 8.94531L23.6484 8.38281L23.3672 8.99219C23.3672 8.99219 22.875 9.99561 22.875 11.3242C22.875 11.5776 22.9351 11.8179 23.0273 12.0391C22.875 11.9541 22.7344 11.8545 22.6055 11.7461C22.0752 11.2979 21.75 10.6621 21.75 9.82422C21.75 8.71533 22.5366 7.43213 23.3555 6.44922C24.0498 5.61719 24.542 5.20996 24.7383 5.04297ZM25.3711 8.99219C25.6274 9.54883 25.875 10.3267 25.875 11.3242C25.875 11.9453 25.3711 12.4492 24.75 12.4492C24.1289 12.4492 23.625 11.9453 23.625 11.3242C23.625 10.7266 23.7407 10.2212 23.8477 9.85938C24.0161 10.0103 24.2227 10.1641 24.5273 10.1641C24.7061 10.1641 24.876 10.082 24.9844 9.97656C25.0928 9.87109 25.1543 9.74658 25.207 9.625C25.292 9.42725 25.3359 9.20752 25.3711 8.99219Z" fill="black"/>
</svg>
