<svg width="60" height="44" viewBox="0 0 60 44" fill="none" xmlns="http://www.w3.org/2000/svg">
<path d="M28.5531 14.1054C28.0591 14.3524 27.8581 14.9524 28.1051 15.4463C28.2811 15.7973 28.6341 15.9993 29.0011 15.9993C29.1511 15.9993 29.3041 15.9653 29.4471 15.8943C29.5511 15.8414 32.0001 14.5873 32.0001 11.9994C32.0001 10.5854 31.2532 9.8374 30.7071 9.29236C30.2171 8.80241 30.0001 8.56135 30.0001 7.99932C30.0001 7.43729 30.2171 7.19636 30.7071 6.70628C31.2531 6.16124 32.0001 5.41324 32.0001 3.99926C32.0001 1.4113 29.5512 0.157283 29.4471 0.105252C28.9581 -0.138732 28.3611 0.0582592 28.1121 0.547281C27.8622 1.03829 28.0591 1.63829 28.5471 1.8913C28.5611 1.89833 30.0001 2.65723 30.0001 3.99926C30.0001 4.56129 29.7831 4.80223 29.2931 5.2923C28.7472 5.83734 28.0001 6.58534 28.0001 7.99932C28.0001 9.4133 28.747 10.1613 29.2931 10.7063C29.7831 11.1963 30.0001 11.4374 30.0001 11.9994C30.0001 13.3414 28.5612 14.1003 28.5531 14.1054Z" fill="black"/>
<path d="M22.0001 13.9994C22.0001 15.3324 20.5811 16.0894 20.5471 16.1074C20.0581 16.3564 19.8591 16.9544 20.1051 17.4463C20.2811 17.7973 20.6341 17.9993 21.0011 17.9993C21.1511 17.9993 21.3041 17.9654 21.4471 17.8943C21.551 17.8414 24.0001 16.5874 24.0001 13.9994C24.0001 12.5854 23.2532 11.8374 22.7071 11.2924C22.2171 10.8024 22.0001 10.5614 22.0001 9.99934C22.0001 8.65731 23.4381 7.89829 23.4471 7.89431C23.9411 7.64728 24.1422 7.04634 23.8941 6.55228C23.6481 6.05834 23.0481 5.8563 22.5531 6.10533C22.4492 6.15736 20.0001 7.41138 20.0001 9.99934C20.0001 11.4133 20.747 12.1613 21.2931 12.7064C21.7832 13.1963 22.0001 13.4374 22.0001 13.9994Z" fill="black"/>
<path d="M38.0001 13.9994C38.0001 15.3324 36.5822 16.0895 36.5482 16.1074C36.0582 16.3564 35.8592 16.9544 36.1052 17.4464C36.2812 17.7974 36.6342 17.9994 37.0012 17.9994C37.1512 17.9994 37.3043 17.9654 37.4472 17.8944C37.5522 17.8414 40.0003 16.5874 40.0003 13.9994C40.0003 12.5855 39.2533 11.8375 38.7072 11.2924C38.2173 10.8025 38.0002 10.5614 38.0002 9.99938C38.0002 8.65735 39.4382 7.89833 39.4473 7.89435C39.9412 7.64732 40.1423 7.04638 39.8942 6.55232C39.6463 6.05838 39.0463 5.85834 38.5532 6.10537C38.4482 6.1574 36.0002 7.41142 36.0002 9.99938C36.0002 11.4134 36.7472 12.1614 37.2933 12.7064C37.7831 13.1964 38.0001 13.4374 38.0001 13.9994Z" fill="black"/>
<path d="M14.0002 23.9993C14.6842 23.9993 15.3132 24.3494 15.6853 24.9353C15.9703 25.3843 16.5572 25.5313 17.0233 25.2693C17.8073 24.8253 18.7183 24.9563 19.3443 25.5323C19.6282 25.7923 20.0354 25.8653 20.3923 25.7242C20.7483 25.5813 20.9923 25.2473 21.0183 24.8632C21.0903 23.8183 21.9603 22.9993 23.0003 22.9993C23.6713 22.9993 24.2943 23.3352 24.6663 23.8973C25.0374 24.4573 25.9634 24.4573 26.3333 23.8973C27.0154 22.8702 28.6063 22.7262 29.4613 23.6463C29.6982 23.9013 30.0493 24.0162 30.3913 23.9463C30.7312 23.8783 31.0133 23.6383 31.1333 23.3123C31.4223 22.5263 32.1723 21.9993 33.0003 21.9993C34.1024 21.9993 35.0004 22.8963 34.9993 23.9743C34.9963 23.9952 34.9854 24.0912 34.9833 24.1123C34.9572 24.4503 35.1043 24.7793 35.3753 24.9843C35.6442 25.1903 36.0022 25.2453 36.3202 25.1293C37.1852 24.8173 37.9243 25.0662 38.4613 25.6463C38.6982 25.9013 39.0502 26.0153 39.3913 25.9463C39.7312 25.8783 40.0133 25.6383 40.1333 25.3123C40.4223 24.5263 41.1723 23.9993 42.0003 23.9993C42.8943 23.9993 43.6843 24.6084 43.9203 25.4804C43.9942 25.7563 44.1843 25.9873 44.4393 26.1143C44.6943 26.2423 44.9923 26.2533 45.2583 26.1474C46.1683 25.7804 47.1794 26.1354 47.6853 26.9344C47.9692 27.3844 48.5573 27.5334 49.0223 27.2695C49.8813 26.7855 50.8882 26.9955 51.4882 27.6634C51.6852 27.8834 51.9592 27.9954 52.2323 27.9954C52.4712 27.9954 52.7103 27.9114 52.9002 27.7395C53.3112 27.3705 53.3462 26.7385 52.9772 26.3275C51.9522 25.1864 50.2922 24.7175 48.8313 25.1815C47.9672 24.3065 46.7103 23.8635 45.4723 24.0356C44.7753 22.8016 43.4573 21.9995 42.0003 21.9995C40.7813 21.9995 39.6464 22.5665 38.9004 23.4876C38.2834 23.1506 37.5824 22.9767 36.8743 23.0016C36.4303 21.2776 34.8613 19.9996 33.0003 19.9996C31.7823 19.9996 30.6493 20.5646 29.9033 21.4836C28.5403 20.7366 26.7134 20.9036 25.5004 21.8786C24.8004 21.3156 23.9234 20.9996 23.0004 20.9996C21.4354 20.9996 20.0624 21.9196 19.4124 23.2615C18.5973 22.9485 17.6754 22.9135 16.8315 23.1806C16.0885 22.4306 15.0795 21.9995 14.0005 21.9995C13.4485 21.9995 13.0005 22.4476 13.0005 22.9995C13.0005 23.5515 13.4482 23.9993 14.0002 23.9993Z" fill="black"/>
<path d="M59 29.9993H1.00019C0.44824 29.9993 0.00023365 30.4473 0.00023365 30.9993C0.00023365 33.7562 2.24319 35.9993 5.00025 35.9993H6.05529C6.55427 40.4933 10.3753 43.9993 15.0003 43.9993H45.0002C49.6252 43.9993 53.4451 40.4933 53.9441 35.9993H55.0001C57.757 35.9993 60.0001 33.7563 60.0001 30.9993C60 30.4473 59.553 29.9993 59 29.9993ZM55 33.9993H52.9999C52.4469 33.9993 52 34.4473 52 34.9992C52 38.8593 48.859 41.9992 45.0001 41.9992H15.0002C11.4792 41.9992 8.55817 39.3872 8.07126 35.9992H49.0001C49.5531 35.9992 50.0001 35.5512 50.0001 34.9992C50.0001 34.4473 49.5531 33.9993 49.0001 33.9993H5.00025C3.6962 33.9993 2.58421 33.1633 2.17124 31.9992H57.829C57.416 33.1633 56.304 33.9993 55 33.9993Z" fill="black"/>
<path d="M0.606208 21.9183L14.6062 27.9183C14.7342 27.9733 14.8682 28.0003 14.9992 28.0003C15.3882 28.0003 15.7572 27.7723 15.9193 27.3933C16.1372 26.8853 15.9012 26.2973 15.3943 26.0803L1.39429 20.0804C0.886285 19.8624 0.297302 20.0984 0.0813268 20.6054C-0.136758 21.1134 0.0992563 21.7013 0.606208 21.9183Z" fill="black"/>
</svg>
