<svg width="60" height="60" viewBox="0 0 60 60" fill="none" xmlns="http://www.w3.org/2000/svg">
<path d="M40.9864 6.875H9.375C7.99425 6.875 6.875 7.99425 6.875 9.375V50.625C6.875 52.0057 7.99425 53.125 9.375 53.125H50.625C52.0057 53.125 53.125 52.0057 53.125 50.625V17.5781" stroke="black" stroke-width="1.25" stroke-linecap="round" stroke-linejoin="round"/>
<path d="M53.6147 4.36462H41.9645C41.5745 4.36462 41.2584 4.68075 41.2584 5.07075V16.721C41.2584 17.111 41.5745 17.4271 41.9645 17.4271H53.6147C54.0047 17.4271 54.3209 17.111 54.3209 16.721V5.07075C54.3209 4.68075 54.0047 4.36462 53.6147 4.36462Z" stroke="black" stroke-width="1.25" stroke-linecap="round" stroke-linejoin="round"/>
<path d="M6.89386 44.4011C6.89386 44.4011 11.9402 40.831 14.689 39.4425C16.6079 38.4733 18.5612 36.9471 20.7042 37.1169C23.0167 37.3 24.5174 39.887 26.7194 40.6165C27.759 40.961 28.8992 41.137 29.9841 40.9868C31.2801 40.8071 32.5084 40.1951 33.6172 39.5008C36.403 37.7561 38.1926 34.6923 40.9605 32.9193C41.949 32.2861 43.0195 31.5754 44.1921 31.5199C47.2085 31.3771 49.8406 34.002 52.808 34.3186" stroke="black" stroke-width="1.25" stroke-linecap="round" stroke-linejoin="round"/>
<path d="M17.4745 21.5231C20.2124 21.5231 22.4319 19.3037 22.4319 16.5658C22.4319 13.8279 20.2124 11.6084 17.4745 11.6084C14.7366 11.6084 12.5172 13.8279 12.5172 16.5658C12.5172 19.3037 14.7366 21.5231 17.4745 21.5231Z" stroke="black" stroke-width="1.25" stroke-linecap="round" stroke-linejoin="round"/>
<path d="M45.5148 10.2622L47.7869 7.99011V13.815" stroke="black" stroke-width="1.25" stroke-linecap="round" stroke-linejoin="round"/>
<path d="M50.0647 10.2486L47.7925 7.9765V13.8014" stroke="black" stroke-width="1.25" stroke-linecap="round" stroke-linejoin="round"/>
</svg>
